<svg t="1692607052281" class="icon" viewBox="0 0 1024 1024" version="1.1" xmlns="http://www.w3.org/2000/svg"
     p-id="14413" width="200" height="200">
    <path d="M217.775158 326.144c-8.663579 0-15.669895-7.006316-15.669895-15.669895v-56.037052A65.886316 65.886316 0 0 1 267.910737 188.631579h56.117895a15.669895 15.669895 0 1 1 0 31.339789h-56.117895a34.506105 34.506105 0 0 0-34.465684 34.465685v56.037052c0 8.650105-7.019789 15.669895-15.669895 15.669895z m106.253474 508.901053h-56.117895A65.886316 65.886316 0 0 1 202.105263 769.253053v-56.023579a15.669895 15.669895 0 1 1 31.33979 0v56.023579a34.519579 34.519579 0 0 0 34.465684 34.492631h56.117895a15.669895 15.669895 0 1 1 0 31.326316zM833.172211 326.144c-8.650105 0-15.669895-7.006316-15.669895-15.669895v-56.037052a34.506105 34.506105 0 0 0-34.465684-34.465685H726.905263a15.669895 15.669895 0 1 1 0-31.339789h56.117895A65.886316 65.886316 0 0 1 848.842105 254.437053v56.037052c0 8.650105-7.006316 15.669895-15.669894 15.669895z m-50.135579 508.901053H726.905263a15.669895 15.669895 0 1 1 0-31.326316h56.117895a34.519579 34.519579 0 0 0 34.465684-34.479158v-56.023579a15.669895 15.669895 0 1 1 31.33979 0v56.023579a65.886316 65.886316 0 0 1-65.805474 65.818947zM589.379368 564.250947v-20.143158c46.753684-24.279579 79.130947-76.719158 79.130948-137.512421 0-83.900632-61.642105-151.902316-137.660632-151.902315S393.202526 322.694737 393.202526 406.595368c0 60.604632 32.175158 112.909474 78.686316 137.283369v21.153684c-95.555368 18.836211-166.615579 80.303158-166.615579 147.765895h451.43579c0-68.446316-70.507789-130.694737-167.329685-148.547369z"
          fill="#ffffff" p-id="14414"></path>
</svg>