<svg t="1683890306749" class="icon" viewBox="0 0 1024 1024" version="1.1"
    xmlns="http://www.w3.org/2000/svg" p-id="9824" width="200" height="200">
    <path
        d="M173 873.3c-11 0-20-9-20-20V173.9c0-11 9-20 20-20h320.7c11 0 20-9 20-20v-15c0-11-9-20-20-20H153h-35c-11 0-20 9-20 20v809.3h395.7c11 0 20-9 20-20v-15c0-11-9-20-20-20H173z"
        fill="#dbdbdb" p-id="9825"></path>
    <path
        d="M609.3 273.3c-7.8-7.8-7.8-20.5 0-28.3l10.6-10.6c7.8-7.8 20.5-7.8 28.3 0l264.9 264.9c7.8 7.8 7.8 20.5 0 28.3L648.4 792.8c-7.8 7.8-20.5 7.8-28.3 0l-10.6-10.6c-7.8-7.8-7.8-20.5 0-28.3l199-199c7.8-7.8 5.1-14.1-5.9-14.1H326.1c-11 0-20-9-20-20v-15c0-11 9-20 20-20h475.7c11 0 13.6-6.4 5.9-14.1L609.3 273.3z"
        fill="#dbdbdb" p-id="9826"></path>
</svg>