<svg t="1686290438248" class="icon" viewBox="0 0 1024 1024" version="1.1"
    xmlns="http://www.w3.org/2000/svg" p-id="7623" width="200" height="200">
    <path
        d="M992.06784 745.173333h-32.469333a15.829333 15.829333 0 0 1-14.165334-8.533333l-15.957333-27.434667a15.872 15.872 0 0 1-2.346667-8.234666 18.816 18.816 0 0 1 2.048-7.978667l15.957334-27.776a15.829333 15.829333 0 0 1 14.165333-8.533333h32.426667a15.829333 15.829333 0 0 1 14.165333 8.533333l15.658667 27.434667a15.872 15.872 0 0 1 2.346666 8.234666 20.096 20.096 0 0 1-2.048 8.234667l-15.957333 27.776a15.658667 15.658667 0 0 1-13.824 8.277333z m-180.096 0h-177.066667a88.704 88.704 0 0 1-77.952-46.634666l-36.181333-62.165334 51.2-88.874666 18.602667 32.469333 27.264 47.104a56.106667 56.106667 0 0 0 49.621333 29.525333h112.213333a56.149333 56.149333 0 0 0 48.810667-28.757333l55.466667-96.256a56.96 56.96 0 0 0-0.554667-57.344l-54.613333-94.805333a56.362667 56.362667 0 0 0-49.621334-29.866667h-112.213333a57.045333 57.045333 0 0 0-49.621333 29.525333c-55.466667 96.554667-56.106667 97.450667-185.429334 320a89.301333 89.301333 0 0 1-77.653333 45.781334H177.049173a88.704 88.704 0 0 1-77.952-46.634667L12.569173 548.522667a88.789333 88.789333 0 0 1-0.896-89.6l87.168-151.381334a89.173333 89.173333 0 0 1 78.208-46.634666h177.194667a88.490667 88.490667 0 0 1 78.250667 46.933333l36.266666 62.592-51.456 88.32-45.994666-79.744a56.362667 56.362667 0 0 0-49.578667-29.866667H209.561173a57.045333 57.045333 0 0 0-49.621333 29.525334l-55.210667 96.341333a58.496 58.496 0 0 0-7.381333 28.032 55.466667 55.466667 0 0 0 7.978667 28.928l27.434666 47.829333 27.178667 47.232a56.106667 56.106667 0 0 0 49.621333 29.525334h112.213334a56.32 56.32 0 0 0 46.933333-25.088l187.52-323.626667a89.301333 89.301333 0 0 1 78.677333-46.933333h177.152a88.490667 88.490667 0 0 1 78.250667 46.933333l85.930667 149.333333a89.344 89.344 0 0 1 0.896 90.069334l-87.509334 151.850666a88.618667 88.618667 0 0 1-77.696 46.08zM283.07584 547.328H250.905173a15.829333 15.829333 0 0 1-14.165333-8.533333l-15.957333-27.434667a15.872 15.872 0 0 1-2.346667-8.234667 18.816 18.816 0 0 1 2.048-7.978666l15.957333-27.776a15.829333 15.829333 0 0 1 14.165334-8.533334h32.469333a15.829333 15.829333 0 0 1 14.165333 8.533334l15.658667 27.434666a15.872 15.872 0 0 1 2.346667 8.234667 20.096 20.096 0 0 1-2.048 8.234667l-15.957334 27.776a15.914667 15.914667 0 0 1-14.165333 8.277333z"
        p-id="7624" fill="#1296db"></path>
</svg>