<svg t="1686275165903" class="icon" viewBox="0 0 1024 1024" version="1.1"
    xmlns="http://www.w3.org/2000/svg" p-id="6289" width="200" height="200">
    <path
        d="M903.5 246.8l-0.2-86.7-53.4 68.3c-0.4 0.5-40.9 52-82.1 84.2-35.7 28-83.8 57.8-124.5 77.8 6.8-20.2 15.5-42.5 18.7-50.5 2-4.8 3.8-7.9 6.4-12.1 14.9-24.7 24.6-48.5 33-171.2l4.5-65.3-52.4 39.3c-43.3 32.5-57.7 58-70.3 80.5-3 5.4-5.9 10.5-9.2 15.7-20.3 32.4-31.5 51.8-42.8 74.5-8.3 16.6-12.2 26.2-17.7 39.5-2.9 6.9-6.1 14.7-10.7 25.4-12.4 28.7-22 49.2-29.7 65.7-17.9 38.2-26 55.6-22 82.7 0.6 4.2 1.9 7.8 3.8 13.3 0.7 1.9 1.4 4.1 2.2 6.6 7.3 22.1 11.2 32.6 16.3 39.8-18.9 21.5-42.6 42-65.8 62-30 25.8-58.5 50.5-79.2 78.4 6.3-34.6 9-60.5 7.1-145-2.2-96.9-91.1-176.4-94.9-179.8l-47.6-42-2.3 63.4c-3.7 103.7 1.3 134 5.2 158.4 2.6 15.7 4.3 26.1 2.4 57.4-2.3 37.6-5.9 65.4-8.8 87.7-3.5 27.1-6.1 46.6-3.6 65.1 3.8 27.9 20.3 42.1 37.1 46.9-27.5 22.9-55.7 44.3-77.5 60.1-13.1 9.6-16.3 27.8-7.1 41.2 9.6 13.9 28.7 17.2 42.3 7.3 16.2-11.8 38.7-28.6 62.9-48 35.9-28.8 65.1-55 87.2-78.2l3.1 15.2c0.4 2 4.3 20.1 14 38.7 21.2 40.2 50.9 46.3 67.1 46.3h0.7c31.3-0.3 98.6-26.3 183.4-60.2 23.3-9.3 43.4-17.4 52.9-20.5 56.1-18.4 97.2-98.8 108.5-123l34.4-74-74.2 34.1c-36.8 16.9-96.7 42.2-114.6 45.5-38 7-70.5 22.2-92 32.2-7.2 3.4-16.2 7.6-19.2 8.3-28.1 6.8-48.1 7-69.2 7.3-3 0-6 0.1-9 0.1-35.6 0.6-68.5 31.7-74.8 38l-2.3 2.3c12.6-14 22.4-26.9 29.4-38.5 15.8-26.3 45.7-52.1 77.4-79.4 29-25 58.7-50.6 81.8-79.8 36.6-8.9 82.9-21.4 112.3-33.6 53.9-22.5 102.3-59.5 178.4-136.6 83.8-84.7 84.6-180.8 84.6-184.8zM417.9 819.3c2.9 0 5.8-0.1 8.6-0.1 22.4-0.2 47.9-0.5 82.7-9 8.6-2.1 18.3-6.6 30.4-12.3 19.8-9.3 46.9-22 77.4-27.6 8.6-1.6 20.9-5.5 34.5-10.4-6.6 5.9-12.8 10.1-18.3 11.8-11.2 3.7-31.2 11.7-56.4 21.8-29.1 11.6-65.4 26.1-97 37.5-47.6 17-61.6 18.4-64.7 18.5h-0.1c-5.8 0-12.4-9.8-17.1-20.8 7.7-5.3 15.5-9.3 20-9.4zM249 722.6c3-23.3 6.8-52.2 9.2-91.9 2.3-38-0.2-53.1-3-70.7-2.3-14-4.9-30.1-5.6-65.8 13.8 22.4 25.3 49.2 25.9 76.8 1.9 84.1-1 104.5-6.3 133.5-1.1 6.1-2 12.1-2.8 17.8-3.6 24.4-6.1 35.6-14.5 40.6-2.7 1.6-5 2.8-6.9 3.6-0.4-10.4 1.5-25 4-43.9z m278.3-265.3c7.5-16 17.7-37.9 30.5-67.4 4.8-11 8.2-19.4 11-26.2 5.4-13.1 8.7-21 16-35.7 10.3-20.7 20.7-38.8 39.9-69.3 2.8-4.4 5.3-8.7 7.6-12.8-5.2 34.3-10.4 42.9-15.3 50.9-3.1 5.1-6.9 11.4-10.6 20.6-0.2 0.4-17.7 43.8-26.3 73.9-2.7 9.5-4.2 13.8-6.1 19.2-1.9 5.3-4 11.3-7.4 22.8-5.3 17.7-8.1 29.2-10.1 37.7-10.3 15.4-16.7 25.5-21.3 34.4-1.6 3-3 5.9-4.4 8.6-2 4-3.8 7.5-5.5 10.6l-9.5-3c-0.6-1.8-1.2-3.7-1.9-5.8-0.9-2.8-1.8-5.2-2.5-7.3-0.4-1.3-1-2.8-1.3-3.8-0.8-8.3 2.2-15.3 17.2-47.4z m249.2-67.9c-69.9 70.9-113 104.3-158.8 123.4-3.9 1.6-8.4 3.3-13.4 5.1 3.9-8.7 6.1-15.4 7.9-22.4 3.6-5.4 7.7-11.3 12.2-17.9 4.4-6.5 9-12.9 13.7-19.1 1.2-0.5 2.4-0.9 3.5-1.4 47.2-19.7 108.6-55.8 155.6-91.4-6.3 8.2-13.2 16.2-20.7 23.7z"
        p-id="6290" fill="#1296db"></path>
</svg>