<?xml version="1.0" encoding="UTF-8"?>
<svg width="38px" height="34px" viewBox="0 0 38 34" version="1.1" xmlns="http://www.w3.org/2000/svg" xmlns:xlink="http://www.w3.org/1999/xlink">
    <title>title图标</title>
    <g id="页面-1" stroke="none" stroke-width="1" fill="none" fill-rule="evenodd">
        <g id="下载" transform="translate(1.000000, 1.000000)">
            <circle id="椭圆形" fill="#61DAFB" fill-rule="nonzero" cx="18.5" cy="16.4549689" r="3.5"></circle>
            <g id="编组" stroke="#2B2C30">
                <ellipse id="椭圆形" cx="18" cy="15.9549689" rx="18" ry="6.86792771"></ellipse>
                <path d="M12.0480436,19.3889328 C17.0186063,27.9921877 23.7128252,33.4290659 27,31.53254 C30.2871748,29.6360142 28.9225192,21.12426 23.9519564,12.5210051 C18.9813937,3.91775015 12.2871748,-1.51912799 9,0.377397872 C5.71282524,2.27392374 7.07748084,10.7856779 12.0480436,19.3889328 Z" id="椭圆形"></path>
                <path d="M12.0480436,12.5210051 C7.07748084,21.12426 5.71282524,29.6360142 9,31.53254 C12.2871748,33.4290659 18.9813937,27.9921877 23.9519564,19.3889328 C28.9225192,10.7856779 30.2871748,2.27392374 27,0.377397872 C23.7128252,-1.51912799 17.0186063,3.91775015 12.0480436,12.5210051 Z" id="椭圆形"></path>
            </g>
        </g>
    </g>
</svg>